<svg fill="#000000" xmlns="http://www.w3.org/2000/svg"  viewBox="0 0 100 100" width="100px" height="100px"><path fill="none" stroke="#000000" stroke-linejoin="round" stroke-miterlimit="10" stroke-width="2" d="M50,16c-18.778,0-34,15.222-34,34c0,6.112,1.621,11.843,4.444,16.799l-4.407,15.933c-0.207,0.749,0.481,1.438,1.23,1.23l15.933-4.407C38.157,82.379,43.888,84,50,84c18.778,0,34-15.222,34-34C84,31.222,68.778,16,50,16z"/><path fill="none" stroke="#000000" stroke-miterlimit="10" d="M41.896,35.949c-0.608-1.375-1.25-1.402-1.832-1.422c-0.475-0.02-1.016-0.02-1.558-0.02c-0.535,0-1.417,0.203-2.159,1.029c-0.749,0.819-2.848,2.81-2.848,6.86c0,4.043,2.915,7.957,3.316,8.505c0.408,0.542,5.622,9.115,13.871,12.413c6.859,2.736,8.256,2.194,9.74,2.059c1.491-0.142,4.807-1.991,5.482-3.914c0.675-1.916,0.675-3.562,0.475-3.907c-0.201-0.345-0.742-0.549-1.558-0.962c-0.809-0.413-4.8-2.397-5.549-2.675c-0.742-0.271-1.284-0.406-1.825,0.413c-0.541,0.819-2.099,2.675-2.574,3.223c-0.475,0.549-0.943,0.616-1.758,0.21c-0.809-0.413-3.423-1.28-6.525-4.083c-2.413-2.18-4.044-4.869-4.519-5.695c-0.475-0.819-0.053-1.266,0.354-1.679c0.368-0.366,0.816-0.962,1.223-1.442c0.401-0.481,0.535-0.819,0.809-1.368c0.267-0.549,0.134-1.029-0.067-1.442C44.196,41.637,42.618,37.574,41.896,35.949z"/><path fill="none" stroke="#000000" stroke-linecap="round" stroke-linejoin="round" stroke-miterlimit="10" d="M57.5 23.544C55.115 22.869 52.601 22.5 50 22.5c-15.188 0-27.5 12.312-27.5 27.5 0 5.868 1.844 11.302 4.975 15.767L24.89 75.11l9.344-2.584C38.699 75.657 44.133 77.5 50 77.5c15.188 0 27.5-12.312 27.5-27.5 0-7.565-3.056-14.416-8-19.388M63.5 26.044c-.966-.545-1.966-1.036-3-1.464M67.5 28.786c-.642-.53-1.311-1.03-2-1.501"/></svg>